<?xml version="1.0" encoding="utf-8"?>
<!-- Generator: Adobe Illustrator 16.0.0, SVG Export Plug-In . SVG Version: 6.00 Build 0)  -->
<!DOCTYPE svg PUBLIC "-//W3C//DTD SVG 1.1 Tiny//EN" "http://www.w3.org/Graphics/SVG/1.1/DTD/svg11-tiny.dtd">
<svg version="1.1" baseProfile="tiny" id="Layer_1" xmlns="http://www.w3.org/2000/svg" xmlns:xlink="http://www.w3.org/1999/xlink"
	 x="0px" y="0px" width="24px" height="24px" viewBox="0 0 24 24" xml:space="preserve">
<g>
	<path d="M12,3.354C8.748,3.354,6.102,6,6.102,9.251c0,3.252,2.646,5.898,5.898,5.898s5.898-2.646,5.898-5.898
		C17.898,6,15.252,3.354,12,3.354z M12,14.349c-2.812,0-5.098-2.287-5.098-5.098c0-2.811,2.286-5.097,5.098-5.097
		s5.098,2.287,5.098,5.097C17.098,12.062,14.812,14.349,12,14.349z"/>
	<path d="M12,0.605c-4.768,0-8.646,3.878-8.646,8.646c0,4.653,8.008,13.631,8.349,14.011c0.076,0.084,0.185,0.133,0.298,0.133
		s0.222-0.048,0.298-0.133c0.341-0.38,8.349-9.358,8.349-14.011C20.646,4.483,16.768,0.605,12,0.605z M12,22.389
		c-1.468-1.691-7.846-9.268-7.846-13.138c0-4.326,3.52-7.846,7.846-7.846s7.846,3.52,7.846,7.846
		C19.846,13.119,13.467,20.697,12,22.389z"/>
</g>
</svg>
